<mxfile host="app.diagrams.net" modified="2020-10-31T11:52:15.922Z" agent="5.0 (Macintosh; Intel Mac OS X 10_15_7) AppleWebKit/537.36 (KHTML, like Gecko) Chrome/86.0.4240.111 Safari/537.36" etag="6dJt6Sr8KvJivod00iwb" version="13.8.5" type="github">
  <diagram id="6JwGHGVocwXZkzMCrswH" name="Page-1">
    <mxGraphModel dx="653" dy="468" grid="1" gridSize="10" guides="1" tooltips="1" connect="1" arrows="1" fold="1" page="1" pageScale="1" pageWidth="850" pageHeight="1100" math="0" shadow="0">
      <root>
        <mxCell id="0" />
        <mxCell id="1" parent="0" />
        <mxCell id="CsnrQh9HoF27jer_LtWM-1" value="sdcard" style="whiteSpace=wrap;html=1;shape=partialRectangle;top=0;left=0;bottom=1;right=0;points=[[0,1],[1,1]];fillColor=none;align=center;verticalAlign=bottom;routingCenterY=0.5;snapToPoint=1;recursiveResize=0;autosize=1;treeFolding=1;treeMoving=1;newEdgeStyle={&quot;edgeStyle&quot;:&quot;entityRelationEdgeStyle&quot;,&quot;startArrow&quot;:&quot;none&quot;,&quot;endArrow&quot;:&quot;none&quot;,&quot;segment&quot;:10,&quot;curved&quot;:1};" vertex="1" parent="1">
          <mxGeometry x="85" y="30" width="70" height="20" as="geometry" />
        </mxCell>
        <mxCell id="CsnrQh9HoF27jer_LtWM-2" value="" style="edgeStyle=entityRelationEdgeStyle;startArrow=none;endArrow=none;segment=10;curved=1;" edge="1" target="CsnrQh9HoF27jer_LtWM-1" parent="1">
          <mxGeometry relative="1" as="geometry">
            <mxPoint x="40" y="269" as="sourcePoint" />
          </mxGeometry>
        </mxCell>
        <mxCell id="CsnrQh9HoF27jer_LtWM-42" style="edgeStyle=orthogonalEdgeStyle;rounded=0;orthogonalLoop=1;jettySize=auto;html=1;exitX=1;exitY=1;exitDx=0;exitDy=0;entryX=0;entryY=0.5;entryDx=0;entryDy=0;" edge="1" parent="1" source="CsnrQh9HoF27jer_LtWM-3" target="CsnrQh9HoF27jer_LtWM-41">
          <mxGeometry relative="1" as="geometry">
            <Array as="points">
              <mxPoint x="170" y="167" />
              <mxPoint x="170" y="92" />
            </Array>
          </mxGeometry>
        </mxCell>
        <mxCell id="CsnrQh9HoF27jer_LtWM-47" style="edgeStyle=orthogonalEdgeStyle;rounded=0;orthogonalLoop=1;jettySize=auto;html=1;exitX=1;exitY=1;exitDx=0;exitDy=0;entryX=0;entryY=0.5;entryDx=0;entryDy=0;" edge="1" parent="1" source="CsnrQh9HoF27jer_LtWM-3" target="CsnrQh9HoF27jer_LtWM-46">
          <mxGeometry relative="1" as="geometry">
            <Array as="points">
              <mxPoint x="200" y="167" />
              <mxPoint x="200" y="167" />
            </Array>
          </mxGeometry>
        </mxCell>
        <mxCell id="CsnrQh9HoF27jer_LtWM-3" value="storage" style="whiteSpace=wrap;html=1;shape=partialRectangle;top=0;left=0;bottom=1;right=0;points=[[0,1],[1,1]];fillColor=none;align=center;verticalAlign=bottom;routingCenterY=0.5;snapToPoint=1;recursiveResize=0;autosize=1;treeFolding=1;treeMoving=1;newEdgeStyle={&quot;edgeStyle&quot;:&quot;entityRelationEdgeStyle&quot;,&quot;startArrow&quot;:&quot;none&quot;,&quot;endArrow&quot;:&quot;none&quot;,&quot;segment&quot;:10,&quot;curved&quot;:1};" vertex="1" parent="1">
          <mxGeometry x="90" y="137" width="70" height="30" as="geometry" />
        </mxCell>
        <mxCell id="CsnrQh9HoF27jer_LtWM-4" value="" style="edgeStyle=entityRelationEdgeStyle;startArrow=none;endArrow=none;segment=10;curved=1;" edge="1" target="CsnrQh9HoF27jer_LtWM-3" parent="1">
          <mxGeometry relative="1" as="geometry">
            <mxPoint x="40" y="269" as="sourcePoint" />
          </mxGeometry>
        </mxCell>
        <mxCell id="CsnrQh9HoF27jer_LtWM-5" value="mnt" style="whiteSpace=wrap;html=1;shape=partialRectangle;top=0;left=0;bottom=1;right=0;points=[[0,1],[1,1]];fillColor=none;align=center;verticalAlign=bottom;routingCenterY=0.5;snapToPoint=1;recursiveResize=0;autosize=1;treeFolding=1;treeMoving=1;newEdgeStyle={&quot;edgeStyle&quot;:&quot;entityRelationEdgeStyle&quot;,&quot;startArrow&quot;:&quot;none&quot;,&quot;endArrow&quot;:&quot;none&quot;,&quot;segment&quot;:10,&quot;curved&quot;:1};" vertex="1" parent="1">
          <mxGeometry x="100" y="247" width="50" height="20" as="geometry" />
        </mxCell>
        <mxCell id="CsnrQh9HoF27jer_LtWM-6" value="" style="edgeStyle=entityRelationEdgeStyle;startArrow=none;endArrow=none;segment=10;curved=1;" edge="1" target="CsnrQh9HoF27jer_LtWM-5" parent="1">
          <mxGeometry relative="1" as="geometry">
            <mxPoint x="40" y="267" as="sourcePoint" />
          </mxGeometry>
        </mxCell>
        <mxCell id="CsnrQh9HoF27jer_LtWM-7" value="data" style="whiteSpace=wrap;html=1;shape=partialRectangle;top=0;left=0;bottom=1;right=0;points=[[0,1],[1,1]];fillColor=none;align=center;verticalAlign=bottom;routingCenterY=0.5;snapToPoint=1;recursiveResize=0;autosize=1;treeFolding=1;treeMoving=1;newEdgeStyle={&quot;edgeStyle&quot;:&quot;entityRelationEdgeStyle&quot;,&quot;startArrow&quot;:&quot;none&quot;,&quot;endArrow&quot;:&quot;none&quot;,&quot;segment&quot;:10,&quot;curved&quot;:1};" vertex="1" parent="1">
          <mxGeometry x="90" y="409" width="60" height="20" as="geometry" />
        </mxCell>
        <mxCell id="CsnrQh9HoF27jer_LtWM-8" value="" style="edgeStyle=entityRelationEdgeStyle;startArrow=none;endArrow=none;segment=10;curved=1;" edge="1" target="CsnrQh9HoF27jer_LtWM-7" parent="1">
          <mxGeometry relative="1" as="geometry">
            <mxPoint x="40" y="269" as="sourcePoint" />
          </mxGeometry>
        </mxCell>
        <mxCell id="CsnrQh9HoF27jer_LtWM-9" value="user" style="whiteSpace=wrap;html=1;shape=partialRectangle;top=0;left=0;bottom=1;right=0;points=[[0,1],[1,1]];fillColor=none;align=center;verticalAlign=bottom;routingCenterY=0.5;snapToPoint=1;recursiveResize=0;autosize=1;treeFolding=1;treeMoving=1;newEdgeStyle={&quot;edgeStyle&quot;:&quot;entityRelationEdgeStyle&quot;,&quot;startArrow&quot;:&quot;none&quot;,&quot;endArrow&quot;:&quot;none&quot;,&quot;segment&quot;:10,&quot;curved&quot;:1};" vertex="1" parent="1">
          <mxGeometry x="220" y="327.00000000000006" width="60" height="20" as="geometry" />
        </mxCell>
        <mxCell id="CsnrQh9HoF27jer_LtWM-10" value="" style="edgeStyle=entityRelationEdgeStyle;startArrow=none;endArrow=none;segment=10;curved=1;exitX=1;exitY=1;exitDx=0;exitDy=0;" edge="1" target="CsnrQh9HoF27jer_LtWM-9" parent="1" source="CsnrQh9HoF27jer_LtWM-5">
          <mxGeometry relative="1" as="geometry">
            <mxPoint x="165" y="387.00000000000006" as="sourcePoint" />
          </mxGeometry>
        </mxCell>
        <mxCell id="CsnrQh9HoF27jer_LtWM-106" style="edgeStyle=orthogonalEdgeStyle;rounded=0;orthogonalLoop=1;jettySize=auto;html=1;exitX=1;exitY=1;exitDx=0;exitDy=0;entryX=1;entryY=1;entryDx=0;entryDy=0;startArrow=none;startFill=0;endArrow=classic;endFill=1;dashed=1;" edge="1" parent="1" source="CsnrQh9HoF27jer_LtWM-11" target="CsnrQh9HoF27jer_LtWM-1">
          <mxGeometry relative="1" as="geometry">
            <Array as="points">
              <mxPoint x="290" y="240" />
              <mxPoint x="155" y="240" />
            </Array>
          </mxGeometry>
        </mxCell>
        <mxCell id="CsnrQh9HoF27jer_LtWM-11" value="sdcard" style="whiteSpace=wrap;html=1;shape=partialRectangle;top=0;left=0;bottom=1;right=0;points=[[0,1],[1,1]];fillColor=none;align=center;verticalAlign=bottom;routingCenterY=0.5;snapToPoint=1;recursiveResize=0;autosize=1;treeFolding=1;treeMoving=1;newEdgeStyle={&quot;edgeStyle&quot;:&quot;entityRelationEdgeStyle&quot;,&quot;startArrow&quot;:&quot;none&quot;,&quot;endArrow&quot;:&quot;none&quot;,&quot;segment&quot;:10,&quot;curved&quot;:1};" vertex="1" parent="1">
          <mxGeometry x="220" y="246.83" width="70" height="20.17" as="geometry" />
        </mxCell>
        <mxCell id="CsnrQh9HoF27jer_LtWM-12" value="" style="edgeStyle=entityRelationEdgeStyle;startArrow=none;endArrow=none;segment=10;curved=1;" edge="1" target="CsnrQh9HoF27jer_LtWM-11" parent="1">
          <mxGeometry relative="1" as="geometry">
            <mxPoint x="150" y="267" as="sourcePoint" />
          </mxGeometry>
        </mxCell>
        <mxCell id="CsnrQh9HoF27jer_LtWM-13" value="runtime" style="whiteSpace=wrap;html=1;shape=partialRectangle;top=0;left=0;bottom=1;right=0;points=[[0,1],[1,1]];fillColor=none;align=center;verticalAlign=bottom;routingCenterY=0.5;snapToPoint=1;recursiveResize=0;autosize=1;treeFolding=1;treeMoving=1;newEdgeStyle={&quot;edgeStyle&quot;:&quot;entityRelationEdgeStyle&quot;,&quot;startArrow&quot;:&quot;none&quot;,&quot;endArrow&quot;:&quot;none&quot;,&quot;segment&quot;:10,&quot;curved&quot;:1};" vertex="1" parent="1">
          <mxGeometry x="220" y="192" width="70" height="20" as="geometry" />
        </mxCell>
        <mxCell id="CsnrQh9HoF27jer_LtWM-14" value="" style="edgeStyle=entityRelationEdgeStyle;startArrow=none;endArrow=none;segment=10;curved=1;exitX=1;exitY=1;exitDx=0;exitDy=0;" edge="1" target="CsnrQh9HoF27jer_LtWM-13" parent="1" source="CsnrQh9HoF27jer_LtWM-5">
          <mxGeometry relative="1" as="geometry">
            <mxPoint x="150" y="191.82999999999998" as="sourcePoint" />
          </mxGeometry>
        </mxCell>
        <mxCell id="CsnrQh9HoF27jer_LtWM-15" value="0" style="whiteSpace=wrap;html=1;shape=partialRectangle;top=0;left=0;bottom=1;right=0;points=[[0,1],[1,1]];fillColor=none;align=center;verticalAlign=bottom;routingCenterY=0.5;snapToPoint=1;recursiveResize=0;autosize=1;treeFolding=1;treeMoving=1;newEdgeStyle={&quot;edgeStyle&quot;:&quot;entityRelationEdgeStyle&quot;,&quot;startArrow&quot;:&quot;none&quot;,&quot;endArrow&quot;:&quot;none&quot;,&quot;segment&quot;:10,&quot;curved&quot;:1};" vertex="1" parent="1">
          <mxGeometry x="340" y="309" width="40" height="20" as="geometry" />
        </mxCell>
        <mxCell id="CsnrQh9HoF27jer_LtWM-16" value="" style="edgeStyle=entityRelationEdgeStyle;startArrow=none;endArrow=none;segment=10;curved=1;exitX=1;exitY=1;exitDx=0;exitDy=0;" edge="1" target="CsnrQh9HoF27jer_LtWM-15" parent="1" source="CsnrQh9HoF27jer_LtWM-9">
          <mxGeometry relative="1" as="geometry">
            <mxPoint x="295" y="387.00000000000006" as="sourcePoint" />
          </mxGeometry>
        </mxCell>
        <mxCell id="CsnrQh9HoF27jer_LtWM-90" style="edgeStyle=orthogonalEdgeStyle;rounded=0;orthogonalLoop=1;jettySize=auto;html=1;entryX=0;entryY=0.5;entryDx=0;entryDy=0;startArrow=classic;startFill=1;endArrow=none;endFill=0;exitX=1;exitY=1;exitDx=0;exitDy=0;" edge="1" parent="1" source="CsnrQh9HoF27jer_LtWM-17" target="CsnrQh9HoF27jer_LtWM-81">
          <mxGeometry relative="1" as="geometry">
            <mxPoint x="500" y="367" as="sourcePoint" />
            <Array as="points">
              <mxPoint x="440" y="367" />
              <mxPoint x="440" y="367" />
            </Array>
          </mxGeometry>
        </mxCell>
        <mxCell id="CsnrQh9HoF27jer_LtWM-107" value="&lt;font style=&quot;font-size: 9px&quot;&gt;Zygote::MountEmulatedStorage&lt;/font&gt;" style="edgeLabel;html=1;align=center;verticalAlign=middle;resizable=0;points=[];rotation=0;" vertex="1" connectable="0" parent="CsnrQh9HoF27jer_LtWM-90">
          <mxGeometry x="0.0028" y="-3" relative="1" as="geometry">
            <mxPoint x="52.5" y="4" as="offset" />
          </mxGeometry>
        </mxCell>
        <mxCell id="CsnrQh9HoF27jer_LtWM-17" value="x" style="whiteSpace=wrap;html=1;shape=partialRectangle;top=0;left=0;bottom=1;right=0;points=[[0,1],[1,1]];fillColor=none;align=center;verticalAlign=bottom;routingCenterY=0.5;snapToPoint=1;recursiveResize=0;autosize=1;treeFolding=1;treeMoving=1;newEdgeStyle={&quot;edgeStyle&quot;:&quot;entityRelationEdgeStyle&quot;,&quot;startArrow&quot;:&quot;none&quot;,&quot;endArrow&quot;:&quot;none&quot;,&quot;segment&quot;:10,&quot;curved&quot;:1};" vertex="1" parent="1">
          <mxGeometry x="340" y="347.00000000000006" width="40" height="20" as="geometry" />
        </mxCell>
        <mxCell id="CsnrQh9HoF27jer_LtWM-18" value="" style="edgeStyle=entityRelationEdgeStyle;startArrow=none;endArrow=none;segment=10;curved=1;exitX=1;exitY=1;exitDx=0;exitDy=0;" edge="1" target="CsnrQh9HoF27jer_LtWM-17" parent="1" source="CsnrQh9HoF27jer_LtWM-9">
          <mxGeometry relative="1" as="geometry">
            <mxPoint x="295" y="387.00000000000006" as="sourcePoint" />
          </mxGeometry>
        </mxCell>
        <mxCell id="CsnrQh9HoF27jer_LtWM-19" value="default" style="whiteSpace=wrap;html=1;shape=partialRectangle;top=0;left=0;bottom=1;right=0;points=[[0,1],[1,1]];fillColor=none;align=center;verticalAlign=bottom;routingCenterY=0.5;snapToPoint=1;recursiveResize=0;autosize=1;treeFolding=1;treeMoving=1;newEdgeStyle={&quot;edgeStyle&quot;:&quot;entityRelationEdgeStyle&quot;,&quot;startArrow&quot;:&quot;none&quot;,&quot;endArrow&quot;:&quot;none&quot;,&quot;segment&quot;:10,&quot;curved&quot;:1};" vertex="1" parent="1">
          <mxGeometry x="325" y="127" width="70" height="20" as="geometry" />
        </mxCell>
        <mxCell id="CsnrQh9HoF27jer_LtWM-20" value="" style="edgeStyle=entityRelationEdgeStyle;startArrow=none;endArrow=none;segment=10;curved=1;exitX=1;exitY=1;exitDx=0;exitDy=0;" edge="1" target="CsnrQh9HoF27jer_LtWM-19" parent="1" source="CsnrQh9HoF27jer_LtWM-13">
          <mxGeometry relative="1" as="geometry">
            <mxPoint x="285" y="227" as="sourcePoint" />
          </mxGeometry>
        </mxCell>
        <mxCell id="CsnrQh9HoF27jer_LtWM-21" value="read" style="whiteSpace=wrap;html=1;shape=partialRectangle;top=0;left=0;bottom=1;right=0;points=[[0,1],[1,1]];fillColor=none;align=center;verticalAlign=bottom;routingCenterY=0.5;snapToPoint=1;recursiveResize=0;autosize=1;treeFolding=1;treeMoving=1;newEdgeStyle={&quot;edgeStyle&quot;:&quot;entityRelationEdgeStyle&quot;,&quot;startArrow&quot;:&quot;none&quot;,&quot;endArrow&quot;:&quot;none&quot;,&quot;segment&quot;:10,&quot;curved&quot;:1};" vertex="1" parent="1">
          <mxGeometry x="335" y="192" width="60" height="20" as="geometry" />
        </mxCell>
        <mxCell id="CsnrQh9HoF27jer_LtWM-22" value="" style="edgeStyle=entityRelationEdgeStyle;startArrow=none;endArrow=none;segment=10;curved=1;exitX=1;exitY=1;exitDx=0;exitDy=0;" edge="1" target="CsnrQh9HoF27jer_LtWM-21" parent="1" source="CsnrQh9HoF27jer_LtWM-13">
          <mxGeometry relative="1" as="geometry">
            <mxPoint x="290" y="227" as="sourcePoint" />
          </mxGeometry>
        </mxCell>
        <mxCell id="CsnrQh9HoF27jer_LtWM-23" value="write" style="whiteSpace=wrap;html=1;shape=partialRectangle;top=0;left=0;bottom=1;right=0;points=[[0,1],[1,1]];fillColor=none;align=center;verticalAlign=bottom;routingCenterY=0.5;snapToPoint=1;recursiveResize=0;autosize=1;treeFolding=1;treeMoving=1;newEdgeStyle={&quot;edgeStyle&quot;:&quot;entityRelationEdgeStyle&quot;,&quot;startArrow&quot;:&quot;none&quot;,&quot;endArrow&quot;:&quot;none&quot;,&quot;segment&quot;:10,&quot;curved&quot;:1};" vertex="1" parent="1">
          <mxGeometry x="335" y="257" width="60" height="20" as="geometry" />
        </mxCell>
        <mxCell id="CsnrQh9HoF27jer_LtWM-24" value="" style="edgeStyle=entityRelationEdgeStyle;startArrow=none;endArrow=none;segment=10;curved=1;exitX=1;exitY=1;exitDx=0;exitDy=0;" edge="1" target="CsnrQh9HoF27jer_LtWM-23" parent="1" source="CsnrQh9HoF27jer_LtWM-13">
          <mxGeometry relative="1" as="geometry">
            <mxPoint x="290" y="297" as="sourcePoint" />
          </mxGeometry>
        </mxCell>
        <mxCell id="CsnrQh9HoF27jer_LtWM-25" value="self" style="whiteSpace=wrap;html=1;shape=partialRectangle;top=0;left=0;bottom=1;right=0;points=[[0,1],[1,1]];fillColor=none;align=center;verticalAlign=bottom;routingCenterY=0.5;snapToPoint=1;recursiveResize=0;autosize=1;treeFolding=1;treeMoving=1;newEdgeStyle={&quot;edgeStyle&quot;:&quot;entityRelationEdgeStyle&quot;,&quot;startArrow&quot;:&quot;none&quot;,&quot;endArrow&quot;:&quot;none&quot;,&quot;segment&quot;:10,&quot;curved&quot;:1};" vertex="1" parent="1">
          <mxGeometry x="440" y="107" width="50" height="20" as="geometry" />
        </mxCell>
        <mxCell id="CsnrQh9HoF27jer_LtWM-26" value="" style="edgeStyle=entityRelationEdgeStyle;startArrow=none;endArrow=none;segment=10;curved=1;exitX=1;exitY=1;exitDx=0;exitDy=0;" edge="1" target="CsnrQh9HoF27jer_LtWM-25" parent="1" source="CsnrQh9HoF27jer_LtWM-19">
          <mxGeometry relative="1" as="geometry">
            <mxPoint x="395" y="207" as="sourcePoint" />
          </mxGeometry>
        </mxCell>
        <mxCell id="CsnrQh9HoF27jer_LtWM-72" style="edgeStyle=orthogonalEdgeStyle;rounded=0;orthogonalLoop=1;jettySize=auto;html=1;exitX=1;exitY=1;exitDx=0;exitDy=0;entryX=0.75;entryY=0;entryDx=0;entryDy=0;" edge="1" parent="1" source="CsnrQh9HoF27jer_LtWM-27" target="CsnrQh9HoF27jer_LtWM-56">
          <mxGeometry relative="1" as="geometry">
            <Array as="points">
              <mxPoint x="740" y="162" />
            </Array>
          </mxGeometry>
        </mxCell>
        <mxCell id="CsnrQh9HoF27jer_LtWM-27" value="emulated" style="whiteSpace=wrap;html=1;shape=partialRectangle;top=0;left=0;bottom=1;right=0;points=[[0,1],[1,1]];fillColor=none;align=center;verticalAlign=bottom;routingCenterY=0.5;snapToPoint=1;recursiveResize=0;autosize=1;treeFolding=1;treeMoving=1;newEdgeStyle={&quot;edgeStyle&quot;:&quot;entityRelationEdgeStyle&quot;,&quot;startArrow&quot;:&quot;none&quot;,&quot;endArrow&quot;:&quot;none&quot;,&quot;segment&quot;:10,&quot;curved&quot;:1};" vertex="1" parent="1">
          <mxGeometry x="435" y="142" width="80" height="20" as="geometry" />
        </mxCell>
        <mxCell id="CsnrQh9HoF27jer_LtWM-28" value="" style="edgeStyle=entityRelationEdgeStyle;startArrow=none;endArrow=none;segment=10;curved=1;exitX=1;exitY=1;exitDx=0;exitDy=0;" edge="1" target="CsnrQh9HoF27jer_LtWM-27" parent="1" source="CsnrQh9HoF27jer_LtWM-19">
          <mxGeometry relative="1" as="geometry">
            <mxPoint x="365" y="327" as="sourcePoint" />
          </mxGeometry>
        </mxCell>
        <mxCell id="CsnrQh9HoF27jer_LtWM-29" value="self" style="whiteSpace=wrap;html=1;shape=partialRectangle;top=0;left=0;bottom=1;right=0;points=[[0,1],[1,1]];fillColor=none;align=center;verticalAlign=bottom;routingCenterY=0.5;snapToPoint=1;recursiveResize=0;autosize=1;treeFolding=1;treeMoving=1;newEdgeStyle={&quot;edgeStyle&quot;:&quot;entityRelationEdgeStyle&quot;,&quot;startArrow&quot;:&quot;none&quot;,&quot;endArrow&quot;:&quot;none&quot;,&quot;segment&quot;:10,&quot;curved&quot;:1};" vertex="1" parent="1">
          <mxGeometry x="440" y="180" width="50" height="20" as="geometry" />
        </mxCell>
        <mxCell id="CsnrQh9HoF27jer_LtWM-30" value="" style="edgeStyle=entityRelationEdgeStyle;startArrow=none;endArrow=none;segment=10;curved=1;exitX=1;exitY=1;exitDx=0;exitDy=0;" edge="1" parent="1" target="CsnrQh9HoF27jer_LtWM-29" source="CsnrQh9HoF27jer_LtWM-21">
          <mxGeometry relative="1" as="geometry">
            <mxPoint x="395" y="247" as="sourcePoint" />
          </mxGeometry>
        </mxCell>
        <mxCell id="CsnrQh9HoF27jer_LtWM-71" style="edgeStyle=orthogonalEdgeStyle;rounded=0;orthogonalLoop=1;jettySize=auto;html=1;exitX=1;exitY=1;exitDx=0;exitDy=0;entryX=0.5;entryY=0;entryDx=0;entryDy=0;" edge="1" parent="1" source="CsnrQh9HoF27jer_LtWM-31" target="CsnrQh9HoF27jer_LtWM-56">
          <mxGeometry relative="1" as="geometry">
            <Array as="points">
              <mxPoint x="710" y="227" />
            </Array>
          </mxGeometry>
        </mxCell>
        <mxCell id="CsnrQh9HoF27jer_LtWM-31" value="emulated" style="whiteSpace=wrap;html=1;shape=partialRectangle;top=0;left=0;bottom=1;right=0;points=[[0,1],[1,1]];fillColor=none;align=center;verticalAlign=bottom;routingCenterY=0.5;snapToPoint=1;recursiveResize=0;autosize=1;treeFolding=1;treeMoving=1;newEdgeStyle={&quot;edgeStyle&quot;:&quot;entityRelationEdgeStyle&quot;,&quot;startArrow&quot;:&quot;none&quot;,&quot;endArrow&quot;:&quot;none&quot;,&quot;segment&quot;:10,&quot;curved&quot;:1};" vertex="1" parent="1">
          <mxGeometry x="440" y="207" width="80" height="20" as="geometry" />
        </mxCell>
        <mxCell id="CsnrQh9HoF27jer_LtWM-32" value="" style="edgeStyle=entityRelationEdgeStyle;startArrow=none;endArrow=none;segment=10;curved=1;exitX=1;exitY=1;exitDx=0;exitDy=0;" edge="1" parent="1" target="CsnrQh9HoF27jer_LtWM-31" source="CsnrQh9HoF27jer_LtWM-21">
          <mxGeometry relative="1" as="geometry">
            <mxPoint x="395" y="247" as="sourcePoint" />
          </mxGeometry>
        </mxCell>
        <mxCell id="CsnrQh9HoF27jer_LtWM-33" value="self" style="whiteSpace=wrap;html=1;shape=partialRectangle;top=0;left=0;bottom=1;right=0;points=[[0,1],[1,1]];fillColor=none;align=center;verticalAlign=bottom;routingCenterY=0.5;snapToPoint=1;recursiveResize=0;autosize=1;treeFolding=1;treeMoving=1;newEdgeStyle={&quot;edgeStyle&quot;:&quot;entityRelationEdgeStyle&quot;,&quot;startArrow&quot;:&quot;none&quot;,&quot;endArrow&quot;:&quot;none&quot;,&quot;segment&quot;:10,&quot;curved&quot;:1};" vertex="1" parent="1">
          <mxGeometry x="440" y="246.83" width="50" height="20" as="geometry" />
        </mxCell>
        <mxCell id="CsnrQh9HoF27jer_LtWM-34" value="" style="edgeStyle=entityRelationEdgeStyle;startArrow=none;endArrow=none;segment=10;curved=1;exitX=1;exitY=1;exitDx=0;exitDy=0;" edge="1" parent="1" target="CsnrQh9HoF27jer_LtWM-33" source="CsnrQh9HoF27jer_LtWM-23">
          <mxGeometry relative="1" as="geometry">
            <mxPoint x="395" y="286.83" as="sourcePoint" />
          </mxGeometry>
        </mxCell>
        <mxCell id="CsnrQh9HoF27jer_LtWM-70" style="edgeStyle=orthogonalEdgeStyle;rounded=0;orthogonalLoop=1;jettySize=auto;html=1;exitX=1;exitY=1;exitDx=0;exitDy=0;entryX=0.25;entryY=0;entryDx=0;entryDy=0;" edge="1" parent="1" source="CsnrQh9HoF27jer_LtWM-35" target="CsnrQh9HoF27jer_LtWM-56">
          <mxGeometry relative="1" as="geometry">
            <Array as="points">
              <mxPoint x="680" y="297" />
            </Array>
          </mxGeometry>
        </mxCell>
        <mxCell id="CsnrQh9HoF27jer_LtWM-35" value="emulated" style="whiteSpace=wrap;html=1;shape=partialRectangle;top=0;left=0;bottom=1;right=0;points=[[0,1],[1,1]];fillColor=none;align=center;verticalAlign=bottom;routingCenterY=0.5;snapToPoint=1;recursiveResize=0;autosize=1;treeFolding=1;treeMoving=1;newEdgeStyle={&quot;edgeStyle&quot;:&quot;entityRelationEdgeStyle&quot;,&quot;startArrow&quot;:&quot;none&quot;,&quot;endArrow&quot;:&quot;none&quot;,&quot;segment&quot;:10,&quot;curved&quot;:1};" vertex="1" parent="1">
          <mxGeometry x="440" y="277" width="80" height="20" as="geometry" />
        </mxCell>
        <mxCell id="CsnrQh9HoF27jer_LtWM-36" value="" style="edgeStyle=entityRelationEdgeStyle;startArrow=none;endArrow=none;segment=10;curved=1;exitX=1;exitY=1;exitDx=0;exitDy=0;" edge="1" parent="1" target="CsnrQh9HoF27jer_LtWM-35" source="CsnrQh9HoF27jer_LtWM-23">
          <mxGeometry relative="1" as="geometry">
            <mxPoint x="395" y="286.83" as="sourcePoint" />
          </mxGeometry>
        </mxCell>
        <mxCell id="CsnrQh9HoF27jer_LtWM-59" style="edgeStyle=orthogonalEdgeStyle;rounded=0;orthogonalLoop=1;jettySize=auto;html=1;exitX=1;exitY=1;exitDx=0;exitDy=0;entryX=0;entryY=0.5;entryDx=0;entryDy=0;startArrow=classic;startFill=1;endArrow=none;endFill=0;" edge="1" parent="1" source="CsnrQh9HoF27jer_LtWM-37" target="CsnrQh9HoF27jer_LtWM-56">
          <mxGeometry relative="1" as="geometry">
            <Array as="points">
              <mxPoint x="350" y="429" />
              <mxPoint x="350" y="429" />
            </Array>
          </mxGeometry>
        </mxCell>
        <mxCell id="CsnrQh9HoF27jer_LtWM-37" value="media" style="whiteSpace=wrap;html=1;shape=partialRectangle;top=0;left=0;bottom=1;right=0;points=[[0,1],[1,1]];fillColor=none;align=center;verticalAlign=bottom;routingCenterY=0.5;snapToPoint=1;recursiveResize=0;autosize=1;treeFolding=1;treeMoving=1;newEdgeStyle={&quot;edgeStyle&quot;:&quot;entityRelationEdgeStyle&quot;,&quot;startArrow&quot;:&quot;none&quot;,&quot;endArrow&quot;:&quot;none&quot;,&quot;segment&quot;:10,&quot;curved&quot;:1};" vertex="1" parent="1">
          <mxGeometry x="215" y="409" width="70" height="20" as="geometry" />
        </mxCell>
        <mxCell id="CsnrQh9HoF27jer_LtWM-38" value="" style="edgeStyle=entityRelationEdgeStyle;startArrow=none;endArrow=none;segment=10;curved=1;exitX=1;exitY=1;exitDx=0;exitDy=0;" edge="1" target="CsnrQh9HoF27jer_LtWM-37" parent="1" source="CsnrQh9HoF27jer_LtWM-7">
          <mxGeometry relative="1" as="geometry">
            <mxPoint x="150" y="434" as="sourcePoint" />
          </mxGeometry>
        </mxCell>
        <mxCell id="CsnrQh9HoF27jer_LtWM-44" style="edgeStyle=orthogonalEdgeStyle;rounded=0;orthogonalLoop=1;jettySize=auto;html=1;exitX=1;exitY=0.5;exitDx=0;exitDy=0;entryX=1;entryY=1;entryDx=0;entryDy=0;" edge="1" parent="1" source="CsnrQh9HoF27jer_LtWM-41" target="CsnrQh9HoF27jer_LtWM-19">
          <mxGeometry relative="1" as="geometry">
            <Array as="points">
              <mxPoint x="395" y="92" />
            </Array>
          </mxGeometry>
        </mxCell>
        <mxCell id="CsnrQh9HoF27jer_LtWM-41" value="init&lt;br&gt;&lt;br&gt;&amp;nbsp;" style="rounded=1;whiteSpace=wrap;html=1;arcSize=21;" vertex="1" parent="1">
          <mxGeometry x="217.5" y="67" width="65" height="50" as="geometry" />
        </mxCell>
        <mxCell id="CsnrQh9HoF27jer_LtWM-43" style="edgeStyle=orthogonalEdgeStyle;rounded=0;orthogonalLoop=1;jettySize=auto;html=1;exitX=0;exitY=0.5;exitDx=0;exitDy=0;entryX=1;entryY=0.5;entryDx=0;entryDy=0;dashed=1;" edge="1" parent="1" source="CsnrQh9HoF27jer_LtWM-41" target="CsnrQh9HoF27jer_LtWM-41">
          <mxGeometry relative="1" as="geometry">
            <Array as="points">
              <mxPoint x="250" y="92" />
              <mxPoint x="250" y="92" />
            </Array>
          </mxGeometry>
        </mxCell>
        <mxCell id="CsnrQh9HoF27jer_LtWM-51" style="edgeStyle=orthogonalEdgeStyle;rounded=0;orthogonalLoop=1;jettySize=auto;html=1;exitX=1;exitY=0.5;exitDx=0;exitDy=0;entryX=1;entryY=1;entryDx=0;entryDy=0;" edge="1" parent="1" source="CsnrQh9HoF27jer_LtWM-46" target="CsnrQh9HoF27jer_LtWM-19">
          <mxGeometry relative="1" as="geometry">
            <mxPoint x="370" y="159" as="targetPoint" />
            <Array as="points">
              <mxPoint x="395" y="167" />
            </Array>
          </mxGeometry>
        </mxCell>
        <mxCell id="CsnrQh9HoF27jer_LtWM-52" style="edgeStyle=orthogonalEdgeStyle;rounded=0;orthogonalLoop=1;jettySize=auto;html=1;exitX=1;exitY=0.5;exitDx=0;exitDy=0;entryX=1;entryY=1;entryDx=0;entryDy=0;" edge="1" parent="1" source="CsnrQh9HoF27jer_LtWM-46" target="CsnrQh9HoF27jer_LtWM-21">
          <mxGeometry relative="1" as="geometry" />
        </mxCell>
        <mxCell id="CsnrQh9HoF27jer_LtWM-53" style="edgeStyle=orthogonalEdgeStyle;rounded=0;orthogonalLoop=1;jettySize=auto;html=1;exitX=1;exitY=0.5;exitDx=0;exitDy=0;entryX=1;entryY=1;entryDx=0;entryDy=0;" edge="1" parent="1" source="CsnrQh9HoF27jer_LtWM-46" target="CsnrQh9HoF27jer_LtWM-23">
          <mxGeometry relative="1" as="geometry" />
        </mxCell>
        <mxCell id="CsnrQh9HoF27jer_LtWM-46" value="zygote&lt;br&gt;&lt;br&gt;vold&amp;nbsp;" style="rounded=1;whiteSpace=wrap;html=1;arcSize=21;" vertex="1" parent="1">
          <mxGeometry x="217.5" y="142" width="65" height="50" as="geometry" />
        </mxCell>
        <mxCell id="CsnrQh9HoF27jer_LtWM-55" style="edgeStyle=orthogonalEdgeStyle;rounded=0;orthogonalLoop=1;jettySize=auto;html=1;exitX=0;exitY=0.5;exitDx=0;exitDy=0;entryX=1;entryY=0.5;entryDx=0;entryDy=0;dashed=1;" edge="1" parent="1" source="CsnrQh9HoF27jer_LtWM-46" target="CsnrQh9HoF27jer_LtWM-46">
          <mxGeometry relative="1" as="geometry">
            <Array as="points">
              <mxPoint x="260" y="167" />
              <mxPoint x="260" y="167" />
            </Array>
          </mxGeometry>
        </mxCell>
        <mxCell id="CsnrQh9HoF27jer_LtWM-56" value="vold&lt;br&gt;&lt;br&gt;sdcard" style="rounded=1;whiteSpace=wrap;html=1;" vertex="1" parent="1">
          <mxGeometry x="650" y="399" width="120" height="60" as="geometry" />
        </mxCell>
        <mxCell id="CsnrQh9HoF27jer_LtWM-57" value="primary" style="whiteSpace=wrap;html=1;shape=partialRectangle;top=0;left=0;bottom=1;right=0;points=[[0,1],[1,1]];fillColor=none;align=center;verticalAlign=bottom;routingCenterY=0.5;snapToPoint=1;recursiveResize=0;autosize=1;treeFolding=1;treeMoving=1;newEdgeStyle={&quot;edgeStyle&quot;:&quot;entityRelationEdgeStyle&quot;,&quot;startArrow&quot;:&quot;none&quot;,&quot;endArrow&quot;:&quot;none&quot;,&quot;segment&quot;:10,&quot;curved&quot;:1};" vertex="1" parent="1">
          <mxGeometry x="435" y="309" width="70" height="20" as="geometry" />
        </mxCell>
        <mxCell id="CsnrQh9HoF27jer_LtWM-58" value="" style="edgeStyle=entityRelationEdgeStyle;startArrow=none;endArrow=none;segment=10;curved=1;exitX=1;exitY=1;exitDx=0;exitDy=0;" edge="1" target="CsnrQh9HoF27jer_LtWM-57" parent="1" source="CsnrQh9HoF27jer_LtWM-15">
          <mxGeometry relative="1" as="geometry">
            <mxPoint x="400" y="349" as="sourcePoint" />
          </mxGeometry>
        </mxCell>
        <mxCell id="CsnrQh9HoF27jer_LtWM-68" style="edgeStyle=orthogonalEdgeStyle;rounded=0;orthogonalLoop=1;jettySize=auto;html=1;exitX=1;exitY=1;exitDx=0;exitDy=0;entryX=1;entryY=1;entryDx=0;entryDy=0;dashed=1;" edge="1" parent="1" source="CsnrQh9HoF27jer_LtWM-60" target="CsnrQh9HoF27jer_LtWM-57">
          <mxGeometry relative="1" as="geometry">
            <Array as="points">
              <mxPoint x="615" y="90" />
              <mxPoint x="420" y="90" />
              <mxPoint x="420" y="310" />
              <mxPoint x="505" y="310" />
            </Array>
          </mxGeometry>
        </mxCell>
        <mxCell id="CsnrQh9HoF27jer_LtWM-88" style="edgeStyle=orthogonalEdgeStyle;rounded=0;orthogonalLoop=1;jettySize=auto;html=1;entryX=0.5;entryY=0;entryDx=0;entryDy=0;startArrow=none;startFill=0;endArrow=classic;endFill=1;exitX=1;exitY=1;exitDx=0;exitDy=0;" edge="1" parent="1" source="CsnrQh9HoF27jer_LtWM-25" target="CsnrQh9HoF27jer_LtWM-81">
          <mxGeometry relative="1" as="geometry">
            <mxPoint x="646" y="150" as="sourcePoint" />
            <Array as="points">
              <mxPoint x="490" y="140" />
              <mxPoint x="646" y="140" />
              <mxPoint x="646" y="250" />
            </Array>
          </mxGeometry>
        </mxCell>
        <mxCell id="CsnrQh9HoF27jer_LtWM-60" value="primary" style="whiteSpace=wrap;html=1;shape=partialRectangle;top=0;left=0;bottom=1;right=0;points=[[0,1],[1,1]];fillColor=none;align=center;verticalAlign=bottom;routingCenterY=0.5;snapToPoint=1;recursiveResize=0;autosize=1;treeFolding=1;treeMoving=1;newEdgeStyle={&quot;edgeStyle&quot;:&quot;entityRelationEdgeStyle&quot;,&quot;startArrow&quot;:&quot;none&quot;,&quot;endArrow&quot;:&quot;none&quot;,&quot;segment&quot;:10,&quot;curved&quot;:1};" vertex="1" parent="1">
          <mxGeometry x="545" y="107" width="70" height="20" as="geometry" />
        </mxCell>
        <mxCell id="CsnrQh9HoF27jer_LtWM-61" value="" style="edgeStyle=entityRelationEdgeStyle;startArrow=none;endArrow=none;segment=10;curved=1;exitX=1;exitY=1;exitDx=0;exitDy=0;" edge="1" target="CsnrQh9HoF27jer_LtWM-60" parent="1" source="CsnrQh9HoF27jer_LtWM-25">
          <mxGeometry relative="1" as="geometry">
            <mxPoint x="500" y="127" as="sourcePoint" />
          </mxGeometry>
        </mxCell>
        <mxCell id="CsnrQh9HoF27jer_LtWM-89" style="edgeStyle=orthogonalEdgeStyle;rounded=0;orthogonalLoop=1;jettySize=auto;html=1;exitX=1;exitY=1;exitDx=0;exitDy=0;entryX=0.5;entryY=0;entryDx=0;entryDy=0;startArrow=none;startFill=0;endArrow=classic;endFill=1;" edge="1" parent="1" source="CsnrQh9HoF27jer_LtWM-29" target="CsnrQh9HoF27jer_LtWM-81">
          <mxGeometry relative="1" as="geometry">
            <Array as="points">
              <mxPoint x="490" y="210" />
              <mxPoint x="646" y="210" />
            </Array>
          </mxGeometry>
        </mxCell>
        <mxCell id="CsnrQh9HoF27jer_LtWM-62" value="primary" style="whiteSpace=wrap;html=1;shape=partialRectangle;top=0;left=0;bottom=1;right=0;points=[[0,1],[1,1]];fillColor=none;align=center;verticalAlign=bottom;routingCenterY=0.5;snapToPoint=1;recursiveResize=0;autosize=1;treeFolding=1;treeMoving=1;newEdgeStyle={&quot;edgeStyle&quot;:&quot;entityRelationEdgeStyle&quot;,&quot;startArrow&quot;:&quot;none&quot;,&quot;endArrow&quot;:&quot;none&quot;,&quot;segment&quot;:10,&quot;curved&quot;:1};" vertex="1" parent="1">
          <mxGeometry x="545" y="180" width="70" height="20" as="geometry" />
        </mxCell>
        <mxCell id="CsnrQh9HoF27jer_LtWM-63" value="" style="edgeStyle=entityRelationEdgeStyle;startArrow=none;endArrow=none;segment=10;curved=1;exitX=1;exitY=1;exitDx=0;exitDy=0;" edge="1" parent="1" target="CsnrQh9HoF27jer_LtWM-62" source="CsnrQh9HoF27jer_LtWM-29">
          <mxGeometry relative="1" as="geometry">
            <mxPoint x="490" y="191.17000000000002" as="sourcePoint" />
          </mxGeometry>
        </mxCell>
        <mxCell id="CsnrQh9HoF27jer_LtWM-87" style="edgeStyle=orthogonalEdgeStyle;rounded=0;orthogonalLoop=1;jettySize=auto;html=1;exitX=1;exitY=1;exitDx=0;exitDy=0;entryX=0.5;entryY=0;entryDx=0;entryDy=0;startArrow=none;startFill=0;endArrow=classic;endFill=1;" edge="1" parent="1" source="CsnrQh9HoF27jer_LtWM-33" target="CsnrQh9HoF27jer_LtWM-81">
          <mxGeometry relative="1" as="geometry">
            <Array as="points">
              <mxPoint x="490" y="280" />
              <mxPoint x="646" y="280" />
            </Array>
          </mxGeometry>
        </mxCell>
        <mxCell id="CsnrQh9HoF27jer_LtWM-64" value="primary" style="whiteSpace=wrap;html=1;shape=partialRectangle;top=0;left=0;bottom=1;right=0;points=[[0,1],[1,1]];fillColor=none;align=center;verticalAlign=bottom;routingCenterY=0.5;snapToPoint=1;recursiveResize=0;autosize=1;treeFolding=1;treeMoving=1;newEdgeStyle={&quot;edgeStyle&quot;:&quot;entityRelationEdgeStyle&quot;,&quot;startArrow&quot;:&quot;none&quot;,&quot;endArrow&quot;:&quot;none&quot;,&quot;segment&quot;:10,&quot;curved&quot;:1};" vertex="1" parent="1">
          <mxGeometry x="545" y="246.83" width="70" height="20" as="geometry" />
        </mxCell>
        <mxCell id="CsnrQh9HoF27jer_LtWM-65" value="" style="edgeStyle=entityRelationEdgeStyle;startArrow=none;endArrow=none;segment=10;curved=1;exitX=1;exitY=1;exitDx=0;exitDy=0;" edge="1" parent="1" target="CsnrQh9HoF27jer_LtWM-64" source="CsnrQh9HoF27jer_LtWM-33">
          <mxGeometry relative="1" as="geometry">
            <mxPoint x="490" y="257" as="sourcePoint" />
          </mxGeometry>
        </mxCell>
        <mxCell id="CsnrQh9HoF27jer_LtWM-66" value="/storage/self/primary" style="text;html=1;strokeColor=none;fillColor=none;align=center;verticalAlign=middle;whiteSpace=wrap;rounded=0;" vertex="1" parent="1">
          <mxGeometry x="165" y="40" width="120" height="20" as="geometry" />
        </mxCell>
        <mxCell id="CsnrQh9HoF27jer_LtWM-102" style="edgeStyle=orthogonalEdgeStyle;rounded=0;orthogonalLoop=1;jettySize=auto;html=1;exitX=0.25;exitY=0;exitDx=0;exitDy=0;entryX=1;entryY=1;entryDx=0;entryDy=0;startArrow=none;startFill=0;endArrow=classic;endFill=1;dashed=1;" edge="1" parent="1" source="CsnrQh9HoF27jer_LtWM-81" target="CsnrQh9HoF27jer_LtWM-94">
          <mxGeometry relative="1" as="geometry">
            <Array as="points">
              <mxPoint x="630" y="317" />
            </Array>
          </mxGeometry>
        </mxCell>
        <mxCell id="CsnrQh9HoF27jer_LtWM-103" style="edgeStyle=orthogonalEdgeStyle;rounded=0;orthogonalLoop=1;jettySize=auto;html=1;exitX=0.25;exitY=0;exitDx=0;exitDy=0;entryX=1;entryY=1;entryDx=0;entryDy=0;startArrow=none;startFill=0;endArrow=classic;endFill=1;dashed=1;" edge="1" parent="1" source="CsnrQh9HoF27jer_LtWM-81" target="CsnrQh9HoF27jer_LtWM-96">
          <mxGeometry relative="1" as="geometry">
            <Array as="points">
              <mxPoint x="630" y="247" />
            </Array>
          </mxGeometry>
        </mxCell>
        <mxCell id="CsnrQh9HoF27jer_LtWM-104" style="edgeStyle=orthogonalEdgeStyle;rounded=0;orthogonalLoop=1;jettySize=auto;html=1;exitX=0.25;exitY=0;exitDx=0;exitDy=0;entryX=1;entryY=1;entryDx=0;entryDy=0;startArrow=none;startFill=0;endArrow=classic;endFill=1;dashed=1;" edge="1" parent="1" source="CsnrQh9HoF27jer_LtWM-81" target="CsnrQh9HoF27jer_LtWM-98">
          <mxGeometry relative="1" as="geometry">
            <Array as="points">
              <mxPoint x="630" y="180" />
            </Array>
          </mxGeometry>
        </mxCell>
        <mxCell id="CsnrQh9HoF27jer_LtWM-81" value="zygote&lt;br&gt;vold" style="rounded=1;whiteSpace=wrap;html=1;" vertex="1" parent="1">
          <mxGeometry x="615" y="350.25" width="61" height="33.5" as="geometry" />
        </mxCell>
        <mxCell id="CsnrQh9HoF27jer_LtWM-101" style="edgeStyle=orthogonalEdgeStyle;rounded=0;orthogonalLoop=1;jettySize=auto;html=1;exitX=1;exitY=1;exitDx=0;exitDy=0;entryX=0;entryY=0.25;entryDx=0;entryDy=0;startArrow=none;startFill=0;endArrow=classic;endFill=1;dashed=1;" edge="1" parent="1" source="CsnrQh9HoF27jer_LtWM-91" target="CsnrQh9HoF27jer_LtWM-81">
          <mxGeometry relative="1" as="geometry">
            <Array as="points">
              <mxPoint x="505" y="359" />
            </Array>
          </mxGeometry>
        </mxCell>
        <mxCell id="CsnrQh9HoF27jer_LtWM-105" value="&lt;font style=&quot;font-size: 9px&quot;&gt;VolumeManager::linkPrimary&lt;/font&gt;" style="edgeLabel;html=1;align=center;verticalAlign=middle;resizable=0;points=[];" vertex="1" connectable="0" parent="CsnrQh9HoF27jer_LtWM-101">
          <mxGeometry x="-0.1913" y="4" relative="1" as="geometry">
            <mxPoint x="10.81" y="-7.25" as="offset" />
          </mxGeometry>
        </mxCell>
        <mxCell id="CsnrQh9HoF27jer_LtWM-91" value="primary" style="whiteSpace=wrap;html=1;shape=partialRectangle;top=0;left=0;bottom=1;right=0;points=[[0,1],[1,1]];fillColor=none;align=center;verticalAlign=bottom;routingCenterY=0.5;snapToPoint=1;recursiveResize=0;autosize=1;treeFolding=1;treeMoving=1;newEdgeStyle={&quot;edgeStyle&quot;:&quot;entityRelationEdgeStyle&quot;,&quot;startArrow&quot;:&quot;none&quot;,&quot;endArrow&quot;:&quot;none&quot;,&quot;segment&quot;:10,&quot;curved&quot;:1};" vertex="1" parent="1">
          <mxGeometry x="435" y="338" width="70" height="20" as="geometry" />
        </mxCell>
        <mxCell id="CsnrQh9HoF27jer_LtWM-92" value="" style="edgeStyle=entityRelationEdgeStyle;startArrow=none;endArrow=none;segment=10;curved=1;exitX=1;exitY=1;exitDx=0;exitDy=0;" edge="1" target="CsnrQh9HoF27jer_LtWM-91" parent="1" source="CsnrQh9HoF27jer_LtWM-17">
          <mxGeometry relative="1" as="geometry">
            <mxPoint x="380" y="390.25" as="sourcePoint" />
          </mxGeometry>
        </mxCell>
        <mxCell id="CsnrQh9HoF27jer_LtWM-94" value="x" style="whiteSpace=wrap;html=1;shape=partialRectangle;top=0;left=0;bottom=1;right=0;points=[[0,1],[1,1]];fillColor=none;align=center;verticalAlign=bottom;routingCenterY=0.5;snapToPoint=1;recursiveResize=0;autosize=1;treeFolding=1;treeMoving=1;newEdgeStyle={&quot;edgeStyle&quot;:&quot;entityRelationEdgeStyle&quot;,&quot;startArrow&quot;:&quot;none&quot;,&quot;endArrow&quot;:&quot;none&quot;,&quot;segment&quot;:10,&quot;curved&quot;:1};" vertex="1" parent="1">
          <mxGeometry x="560" y="297" width="40" height="20" as="geometry" />
        </mxCell>
        <mxCell id="CsnrQh9HoF27jer_LtWM-95" value="" style="edgeStyle=entityRelationEdgeStyle;startArrow=none;endArrow=none;segment=10;curved=1;exitX=1;exitY=1;exitDx=0;exitDy=0;" edge="1" target="CsnrQh9HoF27jer_LtWM-94" parent="1" source="CsnrQh9HoF27jer_LtWM-35">
          <mxGeometry relative="1" as="geometry">
            <mxPoint x="495" y="337" as="sourcePoint" />
          </mxGeometry>
        </mxCell>
        <mxCell id="CsnrQh9HoF27jer_LtWM-96" value="x" style="whiteSpace=wrap;html=1;shape=partialRectangle;top=0;left=0;bottom=1;right=0;points=[[0,1],[1,1]];fillColor=none;align=center;verticalAlign=bottom;routingCenterY=0.5;snapToPoint=1;recursiveResize=0;autosize=1;treeFolding=1;treeMoving=1;newEdgeStyle={&quot;edgeStyle&quot;:&quot;entityRelationEdgeStyle&quot;,&quot;startArrow&quot;:&quot;none&quot;,&quot;endArrow&quot;:&quot;none&quot;,&quot;segment&quot;:10,&quot;curved&quot;:1};" vertex="1" parent="1">
          <mxGeometry x="560" y="226.83" width="40" height="20" as="geometry" />
        </mxCell>
        <mxCell id="CsnrQh9HoF27jer_LtWM-97" value="" style="edgeStyle=entityRelationEdgeStyle;startArrow=none;endArrow=none;segment=10;curved=1;exitX=1;exitY=1;exitDx=0;exitDy=0;" edge="1" target="CsnrQh9HoF27jer_LtWM-96" parent="1" source="CsnrQh9HoF27jer_LtWM-31">
          <mxGeometry relative="1" as="geometry">
            <mxPoint x="505" y="257" as="sourcePoint" />
          </mxGeometry>
        </mxCell>
        <mxCell id="CsnrQh9HoF27jer_LtWM-98" value="x" style="whiteSpace=wrap;html=1;shape=partialRectangle;top=0;left=0;bottom=1;right=0;points=[[0,1],[1,1]];fillColor=none;align=center;verticalAlign=bottom;routingCenterY=0.5;snapToPoint=1;recursiveResize=0;autosize=1;treeFolding=1;treeMoving=1;newEdgeStyle={&quot;edgeStyle&quot;:&quot;entityRelationEdgeStyle&quot;,&quot;startArrow&quot;:&quot;none&quot;,&quot;endArrow&quot;:&quot;none&quot;,&quot;segment&quot;:10,&quot;curved&quot;:1};" vertex="1" parent="1">
          <mxGeometry x="560" y="160" width="40" height="20" as="geometry" />
        </mxCell>
        <mxCell id="CsnrQh9HoF27jer_LtWM-99" value="" style="edgeStyle=entityRelationEdgeStyle;startArrow=none;endArrow=none;segment=10;curved=1;exitX=1;exitY=1;exitDx=0;exitDy=0;" edge="1" target="CsnrQh9HoF27jer_LtWM-98" parent="1" source="CsnrQh9HoF27jer_LtWM-27">
          <mxGeometry relative="1" as="geometry">
            <mxPoint x="500" y="200" as="sourcePoint" />
          </mxGeometry>
        </mxCell>
        <mxCell id="CsnrQh9HoF27jer_LtWM-121" value="init&lt;br&gt;bind mount" style="edgeStyle=orthogonalEdgeStyle;rounded=0;orthogonalLoop=1;jettySize=auto;html=1;exitX=0.5;exitY=1;exitDx=0;exitDy=0;entryX=0.5;entryY=0;entryDx=0;entryDy=0;startArrow=none;startFill=0;endArrow=classic;endFill=1;" edge="1" parent="1" source="CsnrQh9HoF27jer_LtWM-108" target="CsnrQh9HoF27jer_LtWM-111">
          <mxGeometry relative="1" as="geometry" />
        </mxCell>
        <mxCell id="CsnrQh9HoF27jer_LtWM-122" value="zygote&lt;br&gt;bind mount" style="edgeStyle=orthogonalEdgeStyle;rounded=0;orthogonalLoop=1;jettySize=auto;html=1;exitX=0.5;exitY=1;exitDx=0;exitDy=0;startArrow=none;startFill=0;endArrow=classic;endFill=1;" edge="1" parent="1" source="CsnrQh9HoF27jer_LtWM-108" target="CsnrQh9HoF27jer_LtWM-118">
          <mxGeometry relative="1" as="geometry" />
        </mxCell>
        <mxCell id="CsnrQh9HoF27jer_LtWM-108" value="&lt;span&gt;/storage/self/primary&lt;/span&gt;" style="rounded=1;whiteSpace=wrap;html=1;" vertex="1" parent="1">
          <mxGeometry x="315" y="550" width="120" height="60" as="geometry" />
        </mxCell>
        <mxCell id="CsnrQh9HoF27jer_LtWM-110" style="edgeStyle=orthogonalEdgeStyle;rounded=0;orthogonalLoop=1;jettySize=auto;html=1;exitX=0.5;exitY=1;exitDx=0;exitDy=0;entryX=0.5;entryY=0;entryDx=0;entryDy=0;startArrow=none;startFill=0;endArrow=classic;endFill=1;" edge="1" parent="1" source="CsnrQh9HoF27jer_LtWM-109" target="CsnrQh9HoF27jer_LtWM-108">
          <mxGeometry relative="1" as="geometry" />
        </mxCell>
        <mxCell id="CsnrQh9HoF27jer_LtWM-114" value="symlink" style="edgeLabel;html=1;align=center;verticalAlign=middle;resizable=0;points=[];" vertex="1" connectable="0" parent="CsnrQh9HoF27jer_LtWM-110">
          <mxGeometry x="-0.1333" relative="1" as="geometry">
            <mxPoint as="offset" />
          </mxGeometry>
        </mxCell>
        <mxCell id="CsnrQh9HoF27jer_LtWM-109" value="/sdcard&lt;br&gt;/mnt/sdcard" style="rounded=1;whiteSpace=wrap;html=1;" vertex="1" parent="1">
          <mxGeometry x="315" y="470" width="120" height="60" as="geometry" />
        </mxCell>
        <mxCell id="CsnrQh9HoF27jer_LtWM-123" style="edgeStyle=orthogonalEdgeStyle;rounded=0;orthogonalLoop=1;jettySize=auto;html=1;exitX=0.5;exitY=1;exitDx=0;exitDy=0;entryX=0.5;entryY=0;entryDx=0;entryDy=0;startArrow=none;startFill=0;endArrow=classic;endFill=1;" edge="1" parent="1" source="CsnrQh9HoF27jer_LtWM-111" target="CsnrQh9HoF27jer_LtWM-112">
          <mxGeometry relative="1" as="geometry" />
        </mxCell>
        <mxCell id="CsnrQh9HoF27jer_LtWM-124" value="vold&lt;br&gt;bind mount" style="edgeLabel;html=1;align=center;verticalAlign=middle;resizable=0;points=[];" vertex="1" connectable="0" parent="CsnrQh9HoF27jer_LtWM-123">
          <mxGeometry x="-0.1444" y="2" relative="1" as="geometry">
            <mxPoint as="offset" />
          </mxGeometry>
        </mxCell>
        <mxCell id="CsnrQh9HoF27jer_LtWM-111" value="/mnt/runtime/default/self/primary" style="rounded=1;whiteSpace=wrap;html=1;" vertex="1" parent="1">
          <mxGeometry x="100" y="650" width="182.5" height="60" as="geometry" />
        </mxCell>
        <mxCell id="CsnrQh9HoF27jer_LtWM-126" value="init&lt;br&gt;symlink" style="edgeStyle=orthogonalEdgeStyle;rounded=0;orthogonalLoop=1;jettySize=auto;html=1;exitX=0.5;exitY=1;exitDx=0;exitDy=0;entryX=0.5;entryY=0;entryDx=0;entryDy=0;startArrow=none;startFill=0;endArrow=classic;endFill=1;" edge="1" parent="1" source="CsnrQh9HoF27jer_LtWM-112" target="CsnrQh9HoF27jer_LtWM-116">
          <mxGeometry relative="1" as="geometry" />
        </mxCell>
        <mxCell id="CsnrQh9HoF27jer_LtWM-112" value="/mnt/usr/0/primary" style="rounded=1;whiteSpace=wrap;html=1;" vertex="1" parent="1">
          <mxGeometry x="131.25" y="750" width="120" height="60" as="geometry" />
        </mxCell>
        <mxCell id="CsnrQh9HoF27jer_LtWM-115" value="/data/media" style="rounded=1;whiteSpace=wrap;html=1;" vertex="1" parent="1">
          <mxGeometry x="290" y="960" width="120" height="60" as="geometry" />
        </mxCell>
        <mxCell id="CsnrQh9HoF27jer_LtWM-130" style="edgeStyle=orthogonalEdgeStyle;rounded=0;orthogonalLoop=1;jettySize=auto;html=1;exitX=0.5;exitY=1;exitDx=0;exitDy=0;startArrow=none;startFill=0;endArrow=classic;endFill=1;" edge="1" parent="1" source="CsnrQh9HoF27jer_LtWM-116" target="CsnrQh9HoF27jer_LtWM-115">
          <mxGeometry relative="1" as="geometry" />
        </mxCell>
        <mxCell id="CsnrQh9HoF27jer_LtWM-116" value="/storage/emulated/0&lt;br&gt;/mnt/runtime/default/emulated/0" style="rounded=1;whiteSpace=wrap;html=1;" vertex="1" parent="1">
          <mxGeometry x="100" y="850" width="182.5" height="60" as="geometry" />
        </mxCell>
        <mxCell id="CsnrQh9HoF27jer_LtWM-125" value="vold&lt;br&gt;bind mount" style="edgeStyle=orthogonalEdgeStyle;rounded=0;orthogonalLoop=1;jettySize=auto;html=1;exitX=0.5;exitY=1;exitDx=0;exitDy=0;startArrow=none;startFill=0;endArrow=classic;endFill=1;" edge="1" parent="1" source="CsnrQh9HoF27jer_LtWM-118" target="CsnrQh9HoF27jer_LtWM-119">
          <mxGeometry relative="1" as="geometry" />
        </mxCell>
        <mxCell id="CsnrQh9HoF27jer_LtWM-118" value="/mnt/runtime/&amp;lt;view&amp;gt;/self/primary" style="rounded=1;whiteSpace=wrap;html=1;" vertex="1" parent="1">
          <mxGeometry x="435" y="650" width="182.5" height="60" as="geometry" />
        </mxCell>
        <mxCell id="CsnrQh9HoF27jer_LtWM-127" style="edgeStyle=orthogonalEdgeStyle;rounded=0;orthogonalLoop=1;jettySize=auto;html=1;exitX=0.5;exitY=1;exitDx=0;exitDy=0;startArrow=none;startFill=0;endArrow=classic;endFill=1;" edge="1" parent="1" source="CsnrQh9HoF27jer_LtWM-119" target="CsnrQh9HoF27jer_LtWM-120">
          <mxGeometry relative="1" as="geometry" />
        </mxCell>
        <mxCell id="CsnrQh9HoF27jer_LtWM-128" value="zygote&lt;br&gt;symlink" style="edgeLabel;html=1;align=center;verticalAlign=middle;resizable=0;points=[];" vertex="1" connectable="0" parent="CsnrQh9HoF27jer_LtWM-127">
          <mxGeometry x="-0.1917" y="1" relative="1" as="geometry">
            <mxPoint as="offset" />
          </mxGeometry>
        </mxCell>
        <mxCell id="CsnrQh9HoF27jer_LtWM-119" value="/mnt/usr/&amp;lt;user&amp;gt;/primary" style="rounded=1;whiteSpace=wrap;html=1;" vertex="1" parent="1">
          <mxGeometry x="459.38" y="750" width="133.75" height="60" as="geometry" />
        </mxCell>
        <mxCell id="CsnrQh9HoF27jer_LtWM-129" style="edgeStyle=orthogonalEdgeStyle;rounded=0;orthogonalLoop=1;jettySize=auto;html=1;exitX=0.5;exitY=1;exitDx=0;exitDy=0;startArrow=none;startFill=0;endArrow=classic;endFill=1;" edge="1" parent="1" source="CsnrQh9HoF27jer_LtWM-120" target="CsnrQh9HoF27jer_LtWM-115">
          <mxGeometry relative="1" as="geometry" />
        </mxCell>
        <mxCell id="CsnrQh9HoF27jer_LtWM-120" value="/storage/emulated/&amp;lt;user&amp;gt;&lt;br&gt;/mnt/runtime/&amp;lt;view&amp;gt;/emulated/&amp;lt;user&amp;gt;" style="rounded=1;whiteSpace=wrap;html=1;" vertex="1" parent="1">
          <mxGeometry x="413.76" y="850" width="225" height="60" as="geometry" />
        </mxCell>
        <mxCell id="CsnrQh9HoF27jer_LtWM-131" value="sdcard&lt;br&gt;bind mount" style="text;html=1;strokeColor=none;fillColor=none;align=center;verticalAlign=middle;whiteSpace=wrap;rounded=0;" vertex="1" parent="1">
          <mxGeometry x="310" y="890" width="80" height="50" as="geometry" />
        </mxCell>
        <mxCell id="CsnrQh9HoF27jer_LtWM-132" value="第一次bind&amp;nbsp; mount 完成对view动态选择" style="text;html=1;strokeColor=none;fillColor=none;align=center;verticalAlign=middle;whiteSpace=wrap;rounded=0;" vertex="1" parent="1">
          <mxGeometry x="567.06" y="620" width="156.87" height="20" as="geometry" />
        </mxCell>
        <mxCell id="CsnrQh9HoF27jer_LtWM-133" value="第二次bind&amp;nbsp; mount 完成对user动态选择" style="text;html=1;strokeColor=none;fillColor=none;align=center;verticalAlign=middle;whiteSpace=wrap;rounded=0;" vertex="1" parent="1">
          <mxGeometry x="567.06" y="720" width="156.87" height="20" as="geometry" />
        </mxCell>
        <mxCell id="CsnrQh9HoF27jer_LtWM-134" value="symbol link是指向一个确定的目录，使用一个链接完成三个view动态指向" style="text;html=1;strokeColor=none;fillColor=none;align=center;verticalAlign=middle;whiteSpace=wrap;rounded=0;" vertex="1" parent="1">
          <mxGeometry x="580" y="820" width="162.5" height="20" as="geometry" />
        </mxCell>
      </root>
    </mxGraphModel>
  </diagram>
</mxfile>
